<svg version="1.1" fill="none" stroke="none" stroke-linecap="square" stroke-miterlimit="10" xmlns:xlink="http://www.w3.org/1999/xlink" xmlns="http://www.w3.org/2000/svg"><clipPath id="p.0"><path d="m0 0l100.0 0l0 100.0l-100.0 0l0 -100.0z" clip-rule="nonzero"/></clipPath><g clip-path="url(#p.0)"><path fill="#000000" fill-opacity="0.0" d="m0 0l100.0 0l0 100.0l-100.0 0z" fill-rule="evenodd"/><path fill="#b7b7b7" d="m6.0040135 47.373734l0 0c8.432709 -13.727795 24.455614 -22.26382 41.86932 -22.305426c17.413708 -0.041604996 33.48663 8.417738 42.00002 22.10504l-41.872738 21.144058z" fill-rule="evenodd"/><path fill="#000000" fill-opacity="0.0" d="m6.0040135 47.373734l0 0c8.432709 -13.727795 24.455614 -22.26382 41.86932 -22.305426c17.413708 -0.041604996 33.48663 8.417738 42.00002 22.10504" fill-rule="evenodd"/><path fill="#b7b7b7" d="m89.997215 47.123436l0 0c-8.432709 13.727791 -24.455612 22.263817 -41.86932 22.305428c-17.413708 0.04160309 -33.48663 -8.41774 -42.00002 -22.105045l41.872738 -21.144058z" fill-rule="evenodd"/><path fill="#000000" fill-opacity="0.0" d="m89.997215 47.123436l0 0c-8.432709 13.727791 -24.455612 22.263817 -41.86932 22.305428c-17.413708 0.04160309 -33.48663 -8.41774 -42.00002 -22.105045" fill-rule="evenodd"/><path fill="#ffffff" d="m32.062332 47.248886l0 0c0 -8.302479 7.1358147 -15.032967 15.938282 -15.032967l0 0c4.2270966 0 8.281059 1.5838242 11.270069 4.4030533c2.989006 2.8192291 4.668213 6.6429214 4.668213 10.629913l0 0c0 8.302479 -7.135811 15.03297 -15.938282 15.03297l0 0c-8.802467 0 -15.938282 -6.7304916 -15.938282 -15.03297z" fill-rule="evenodd"/><path fill="#b7b7b7" d="m39.3792 47.248753l0 0c0 -4.6029205 3.8598747 -8.334324 8.621277 -8.334324l0 0c2.2865028 0 4.4793587 0.87807846 6.0961647 2.4410667c1.6168022 1.5629883 2.5251122 3.6828575 2.5251122 5.893257l0 0c0 4.6029167 -3.8598785 8.33432 -8.621277 8.33432l0 0c-4.761402 0 -8.621277 -3.7314034 -8.621277 -8.33432z" fill-rule="evenodd"/></g></svg>